<?xml version="1.0" encoding="utf-8"?>
<!-- Generator: Adobe Illustrator 16.0.0, SVG Export Plug-In . SVG Version: 6.00 Build 0)  -->
<!DOCTYPE svg PUBLIC "-//W3C//DTD SVG 1.1//EN" "http://www.w3.org/Graphics/SVG/1.1/DTD/svg11.dtd">
<svg version="1.1" id="Layer_1" xmlns="http://www.w3.org/2000/svg" xmlns:xlink="http://www.w3.org/1999/xlink" x="0px" y="0px"
	 width="32px" height="32px" viewBox="0 0 32 32" enable-background="new 0 0 32 32" xml:space="preserve">
<g>
	<g>
		<path d="M16.308,20.57c-0.048,0-0.096-0.016-0.138-0.043L2.426,11.173c-0.089-0.06-0.128-0.171-0.096-0.274
			c0.032-0.103,0.127-0.172,0.234-0.172h26.608c0.105,0,0.2,0.068,0.232,0.169c0.033,0.101-0.004,0.211-0.09,0.273l-12.863,9.354
			C16.409,20.555,16.358,20.57,16.308,20.57z"/>
		<path d="M29.172,10.971l-12.864,9.354L2.564,10.971H29.172 M29.172,10.482H2.564c-0.215,0-0.404,0.14-0.468,0.345
			c-0.063,0.205,0.015,0.428,0.193,0.549l13.744,9.354c0.083,0.057,0.179,0.084,0.275,0.084c0.101,0,0.202-0.03,0.288-0.094
			l12.864-9.354c0.171-0.125,0.243-0.346,0.179-0.547C29.57,10.618,29.384,10.482,29.172,10.482L29.172,10.482z"/>
	</g>
	<polygon stroke="#000000" stroke-width="0.9918" stroke-linecap="round" stroke-linejoin="round" stroke-miterlimit="10" points="
		2,29.354 29.792,29.333 29.812,28.979 29.775,13.805 16.542,23.458 16.334,23.5 2.001,14.096 	"/>
</g>
</svg>
